<?xml version="1.0" standalone="no"?>
<svg xmlns:xlink="http://www.w3.org/1999/xlink" id="wave" style="transform:rotate(0deg); transition: 0.3s" viewBox="0 0 1440 240" version="1.1" xmlns="http://www.w3.org/2000/svg"><defs><linearGradient id="sw-gradient-0" x1="0" x2="0" y1="1" y2="0"><stop stop-color="rgba(255, 226, 198, 1)" offset="0%"/><stop stop-color="rgba(255, 226, 198, 1)" offset="100%"/></linearGradient></defs><path style="transform:translate(0, 0px); opacity:1" fill="url(#sw-gradient-0)" d="M0,120L60,116C120,112,240,104,360,120C480,136,600,176,720,164C840,152,960,88,1080,72C1200,56,1320,88,1440,100C1560,112,1680,104,1800,108C1920,112,2040,128,2160,128C2280,128,2400,112,2520,100C2640,88,2760,80,2880,88C3000,96,3120,120,3240,136C3360,152,3480,160,3600,140C3720,120,3840,72,3960,80C4080,88,4200,152,4320,184C4440,216,4560,216,4680,200C4800,184,4920,152,5040,132C5160,112,5280,104,5400,100C5520,96,5640,96,5760,92C5880,88,6000,80,6120,76C6240,72,6360,72,6480,88C6600,104,6720,136,6840,156C6960,176,7080,184,7200,164C7320,144,7440,96,7560,80C7680,64,7800,80,7920,84C8040,88,8160,80,8280,84C8400,88,8520,104,8580,112L8640,120L8640,240L8580,240C8520,240,8400,240,8280,240C8160,240,8040,240,7920,240C7800,240,7680,240,7560,240C7440,240,7320,240,7200,240C7080,240,6960,240,6840,240C6720,240,6600,240,6480,240C6360,240,6240,240,6120,240C6000,240,5880,240,5760,240C5640,240,5520,240,5400,240C5280,240,5160,240,5040,240C4920,240,4800,240,4680,240C4560,240,4440,240,4320,240C4200,240,4080,240,3960,240C3840,240,3720,240,3600,240C3480,240,3360,240,3240,240C3120,240,3000,240,2880,240C2760,240,2640,240,2520,240C2400,240,2280,240,2160,240C2040,240,1920,240,1800,240C1680,240,1560,240,1440,240C1320,240,1200,240,1080,240C960,240,840,240,720,240C600,240,480,240,360,240C240,240,120,240,60,240L0,240Z"/></svg>